
<svg id="visual" viewBox="0 0 1902 200" width="1902" height="200" xmlns="http://www.w3.org/2000/svg" xmlns:xlink="http://www.w3.org/1999/xlink" version="1.1">
<path d="M0 100L127 14L254 48L380 15L507 78L634 48L761 15L888 60L1014 70L1141 45L1268 21L1395 28L1522 81L1648 13L1775 72L1902 107L1902 201L1775 201L1648 201L1522 201L1395 201L1268 201L1141 201L1014 201L888 201L761 201L634 201L507 201L380 201L254 201L127 201L0 201Z" fill="rgb(150, 220, 212)" fill-opacity="0.25"></path>
<path d="M0 61L127 45L254 79L380 128L507 107L634 125L761 100L888 58L1014 69L1141 115L1268 46L1395 123L1522 92L1648 91L1775 88L1902 79L1902 201L1775 201L1648 201L1522 201L1395 201L1268 201L1141 201L1014 201L888 201L761 201L634 201L507 201L380 201L254 201L127 201L0 201Z" fill="rgb(150, 220, 212)" fill-opacity="0.5"></path>
<path d="M0 148L127 101L254 112L380 102L507 85L634 88L761 113L888 99L1014 105L1141 153L1268 142L1395 165L1522 146L1648 147L1775 95L1902 133L1902 201L1775 201L1648 201L1522 201L1395 201L1268 201L1141 201L1014 201L888 201L761 201L634 201L507 201L380 201L254 201L127 201L0 201Z" fill="rgb(150, 220, 212)" fill-opacity="0.75"></path>
<path d="M0 151L127 154L254 189L380 184L507 185L634 164L761 188L888 148L1014 154L1141 183L1268 141L1395 132L1522 176L1648 187L1775 151L1902 151L1902 201L1775 201L1648 201L1522 201L1395 201L1268 201L1141 201L1014 201L888 201L761 201L634 201L507 201L380 201L254 201L127 201L0 201Z" fill="rgb(150, 220, 212)" fill-opacity="1"></path></svg>